<svg width="128" height="128" viewBox="0 0 128 128" fill="none" xmlns="http://www.w3.org/2000/svg">
<rect width="128" height="128" fill="#F22E63"/>
<path d="M24.8065 9H80.129C88.8226 9 95.9355 16.7744 95.9355 26.2765V61.6934C95.9355 71.1955 88.8226 78.9699 80.129 78.9699H48.9113L27.1774 99.7018V78.9699H20.0645C13.7419 78.9699 9 73.787 9 67.3083V26.2765C9 16.7744 16.1129 9 24.8065 9Z" stroke="white" stroke-width="3" stroke-linecap="round" stroke-linejoin="round"/>
<path d="M44.4839 87.8301C44.4839 92.6593 48.0136 96.6104 52.3277 97.0494L79.3888 97.9274L100.959 119V97.9274H108.019C113.902 97.9274 119 92.6593 119 85.6351V43.9289C119 34.2706 111.941 26.3684 103.312 26.3684H96.1794" stroke="white" stroke-width="3" stroke-linecap="round" stroke-linejoin="round"/>
<path d="M35.0909 39.4894H39.7063C41.9427 39.4894 43.7557 41.3024 43.7557 43.5389C43.7557 45.7754 41.9427 47.5884 39.7063 47.5884H35.0909V54.5437C35.0909 56.754 33.2991 58.5458 31.0888 58.5458C28.8785 58.5458 27.0867 56.754 27.0867 54.5437V47.5884H22.446C20.2095 47.5884 18.3965 45.7754 18.3965 43.5389C18.3965 41.3024 20.2095 39.4894 22.446 39.4894H27.0867V32.8423C27.0867 30.632 28.8785 28.8402 31.0888 28.8402C33.2991 28.8402 35.0909 30.632 35.0909 32.8423V39.4894Z" fill="white"/>
<ellipse cx="72.7426" cy="31.8741" rx="3.46388" ry="3.76773" fill="white"/>
<ellipse cx="72.2804" cy="56.4786" rx="3.46388" ry="3.76773" fill="white"/>
<ellipse cx="81.7486" cy="44.6844" rx="3.46388" ry="3.76773" fill="white"/>
<ellipse cx="63.7366" cy="44.6844" rx="3.46388" ry="3.76773" fill="white"/>
</svg>
