<svg width="64" height="64" viewBox="0 0 64 64" fill="none" xmlns="http://www.w3.org/2000/svg">
<rect width="64" height="64" fill="#F22E63"/>
<path d="M14.1848 7H39.3314C43.283 7 46.5161 10.5338 46.5161 14.853V30.9515C46.5161 35.2707 43.283 38.8045 39.3314 38.8045H25.1415L15.2625 48.2281V38.8045H12.0293C9.15543 38.8045 7 36.4486 7 33.5038V14.853C7 10.5338 10.2331 7 14.1848 7Z" stroke="white" stroke-width="3" stroke-linecap="round" stroke-linejoin="round"/>
<path d="M23.129 42.8319C23.129 45.0269 24.7334 46.8229 26.6944 47.0224L38.9949 47.4215L48.7997 57V47.4215H52.0085C54.6825 47.4215 57 45.0269 57 41.8341V22.8768C57 18.4866 53.7912 14.8947 49.8693 14.8947H46.627" stroke="white" stroke-width="3" stroke-linecap="round" stroke-linejoin="round"/>
<path d="M18.8595 20.8588H20.9574C21.974 20.8588 22.7981 21.6829 22.7981 22.6995C22.7981 23.7161 21.974 24.5402 20.9574 24.5402H18.8595V27.7017C18.8595 28.7064 18.0451 29.5208 17.0404 29.5208C16.0357 29.5208 15.2212 28.7064 15.2212 27.7017V24.5402H13.1118C12.0952 24.5402 11.2711 23.7161 11.2711 22.6995C11.2711 21.6829 12.0952 20.8588 13.1118 20.8588H15.2212V17.8374C15.2212 16.8327 16.0357 16.0183 17.0404 16.0183C18.0451 16.0183 18.8595 16.8327 18.8595 17.8374V20.8588Z" fill="white"/>
<ellipse cx="35.9739" cy="17.3973" rx="1.57449" ry="1.7126" fill="white"/>
<ellipse cx="35.7638" cy="28.5812" rx="1.57449" ry="1.7126" fill="white"/>
<ellipse cx="40.0675" cy="23.2202" rx="1.57449" ry="1.7126" fill="white"/>
<ellipse cx="31.8803" cy="23.2202" rx="1.57449" ry="1.7126" fill="white"/>
</svg>
