<svg width="32" height="32" viewBox="0 0 32 32" fill="none" xmlns="http://www.w3.org/2000/svg">
<rect width="32" height="32" fill="#F22E63"/>
<path d="M7.3229 5H18.9531C20.7807 5 22.276 6.58357 22.276 8.51905V15.7331C22.276 17.6686 20.7807 19.2522 18.9531 19.2522H12.3903L7.82134 23.475V19.2522H6.32603C4.99687 19.2522 4 18.1965 4 16.8768V8.51905C4 6.58357 5.49531 5 7.3229 5Z" stroke="white" stroke-width="3" stroke-linecap="round" stroke-linejoin="round"/>
<path d="M11.4596 21.0569C11.4596 22.0405 12.2016 22.8453 13.1085 22.9348L18.7974 23.1136L23.3321 27.4059V23.1136H24.8161C26.0529 23.1136 27.1247 22.0405 27.1247 20.6098V12.1147C27.1247 10.1474 25.6406 8.53777 23.8268 8.53777H22.3272" stroke="white" stroke-width="3" stroke-linecap="round" stroke-linejoin="round"/>
<path d="M9.48494 11.2104H10.4817C10.9372 11.2104 11.3065 11.5797 11.3065 12.0352C11.3065 12.4908 10.9372 12.8601 10.4817 12.8601H9.48494V14.2506C9.48494 14.7153 9.10826 15.092 8.64361 15.092C8.17895 15.092 7.80227 14.7153 7.80227 14.2506V12.8601H6.80021C6.34466 12.8601 5.97537 12.4908 5.97537 12.0352C5.97537 11.5797 6.34466 11.2104 6.80021 11.2104H7.80227V9.88259C7.80227 9.41794 8.17895 9.04126 8.64361 9.04126C9.10826 9.04126 9.48494 9.41794 9.48494 9.88259V11.2104Z" fill="white"/>
<ellipse cx="17.4002" cy="9.65923" rx="0.728192" ry="0.767448" fill="white"/>
<ellipse cx="17.3031" cy="14.6709" rx="0.728192" ry="0.767448" fill="white"/>
<ellipse cx="19.2935" cy="12.2686" rx="0.728192" ry="0.767448" fill="white"/>
<ellipse cx="15.507" cy="12.2686" rx="0.728192" ry="0.767448" fill="white"/>
</svg>
